<svg width="512" height="256" viewBox="0 0 512 256" fill="none" xmlns="http://www.w3.org/2000/svg">
<g clip-path="url(#clip0_0_45)">
<g opacity="0.9">
<g clip-path="url(#clip1_0_45)">
<rect width="512" height="256" rx="8" fill="white"/>
<path d="M37.3198 237.162L94.1734 -22H128.089L146.518 0.118818L85.9394 263H48.4945L37.3198 237.162ZM22.2242 -22L70.2557 239.12L57.9047 263H14.5784L-46 -22H22.2242ZM177.689 237.749L225.329 -22H293.357L232.778 263H189.648L177.689 237.749ZM152.595 -22L210.821 238.728L199.058 263H161.613L99.6627 -0.272665L118.875 -22H152.595Z" fill="url(#paint0_linear_0_45)"/>
<path d="M512.733 91.1387V143.989H366.286V91.1387H512.733ZM389.224 -22V263H320.411V-22H389.224ZM559 -22V263H490.384V-22H559Z" fill="url(#paint1_linear_0_45)"/>
</g>
<rect x="1" y="1" width="510" height="254" rx="7" stroke="#EEF5FF" stroke-width="2"/>
</g>
</g>
<defs>
<linearGradient id="paint0_linear_0_45" x1="289.255" y1="-171.929" x2="265.24" y2="249.399" gradientUnits="userSpaceOnUse">
<stop stop-color="#EEF5FF"/>
<stop offset="0.489583" stop-color="#EEF5FF" stop-opacity="0.97"/>
<stop offset="1" stop-color="#EEF5FF" stop-opacity="0"/>
</linearGradient>
<linearGradient id="paint1_linear_0_45" x1="289.255" y1="-171.929" x2="265.24" y2="249.399" gradientUnits="userSpaceOnUse">
<stop stop-color="#EEF5FF"/>
<stop offset="0.489583" stop-color="#EEF5FF" stop-opacity="0.97"/>
<stop offset="1" stop-color="#EEF5FF" stop-opacity="0"/>
</linearGradient>
<clipPath id="clip0_0_45">
<rect width="512" height="256" fill="white"/>
</clipPath>
<clipPath id="clip1_0_45">
<rect width="512" height="256" rx="8" fill="white"/>
</clipPath>
</defs>
</svg>
