<svg width="18" height="18" viewBox="0 0 18 18" fill="none" xmlns="http://www.w3.org/2000/svg">
<path d="M9.84375 9C9.84375 9.28125 9.66797 9.5625 9.45703 9.70312L6.08203 11.9531C5.69531 12.2344 5.16797 12.1289 4.92188 11.7422C4.64063 11.3555 4.74609 10.8281 5.13281 10.5469L8.15625 8.57812V4.21875C8.15625 3.76172 8.50781 3.375 9 3.375C9.45703 3.375 9.84375 3.76172 9.84375 4.21875V9ZM18 9C18 13.9922 13.957 18 9 18C4.00781 18 0 13.9922 0 9C0 4.04297 4.00781 0 9 0C13.957 0 18 4.04297 18 9ZM9 1.6875C4.95703 1.6875 1.6875 4.99219 1.6875 9C1.6875 13.043 4.95703 16.3125 9 16.3125C13.0078 16.3125 16.3125 13.043 16.3125 9C16.3125 4.99219 13.0078 1.6875 9 1.6875Z" fill="white"/>
</svg>
