<svg width="14" height="16" viewBox="0 0 14 16" fill="none" xmlns="http://www.w3.org/2000/svg">
<path fill-rule="evenodd" clip-rule="evenodd" d="M8.92498 2.59999H4.87498V1.47499C4.87498 1.10936 4.5656 0.799988 4.19998 0.799988C3.80623 0.799988 3.52498 1.10936 3.52498 1.47499V2.59999H2.39998C1.38748 2.59999 0.599976 3.41561 0.599976 4.39999V13.4C0.599976 14.4125 1.38748 15.2 2.39998 15.2H11.4C12.3844 15.2 13.2 14.4125 13.2 13.4V4.39999C13.2 3.41561 12.3844 2.59999 11.4 2.59999H10.275V1.47499C10.275 1.10936 9.9656 0.799988 9.59998 0.799988C9.20623 0.799988 8.92498 1.10936 8.92498 1.47499V2.59999ZM2.39998 13.85C2.14685 13.85 1.94998 13.6531 1.94998 13.4V7.46315H11.85V13.4C11.85 13.6531 11.625 13.85 11.4 13.85H2.39998ZM1.8632 4.58949H11.9685V6.48423H1.8632V4.58949Z" fill="white"/>
</svg>
