<svg width="118" height="16" viewBox="0 0 118 16" fill="none" xmlns="http://www.w3.org/2000/svg">
<path d="M23.3383 1.24033L18.6654 15.2597H15.1147L11.9722 5.76657L8.72771 15.2597H5.1975L0.50415 1.24033H3.93234L7.15646 11.0939L10.5234 1.24033H13.5843L16.8492 11.174L20.1754 1.24033H23.3383Z" fill="#0E0F10"/>
<path d="M31.922 15.5C30.4392 15.5 29.0992 15.1862 27.9021 14.5587C26.7185 13.9312 25.7866 13.07 25.1064 11.9751C24.4399 10.8669 24.1066 9.62523 24.1066 8.25C24.1066 6.87477 24.4399 5.63973 25.1064 4.54489C25.7866 3.43669 26.7185 2.56883 27.9021 1.9413C29.0992 1.31377 30.4392 1 31.922 1C33.4048 1 34.738 1.31377 35.9216 1.9413C37.1051 2.56883 38.037 3.43669 38.7172 4.54489C39.3974 5.63973 39.7375 6.87477 39.7375 8.25C39.7375 9.62523 39.3974 10.8669 38.7172 11.9751C38.037 13.07 37.1051 13.9312 35.9216 14.5587C34.738 15.1862 33.4048 15.5 31.922 15.5ZM31.922 12.7362C32.7654 12.7362 33.5273 12.5493 34.2075 12.1754C34.8877 11.7882 35.4182 11.2541 35.7991 10.5732C36.1936 9.89226 36.3909 9.11786 36.3909 8.25C36.3909 7.38214 36.1936 6.60773 35.7991 5.9268C35.4182 5.24586 34.8877 4.71846 34.2075 4.34461C33.5273 3.95741 32.7654 3.76381 31.922 3.76381C31.0786 3.76381 30.3167 3.95741 29.6365 4.34461C28.9564 4.71846 28.419 5.24586 28.0245 5.9268C27.6436 6.60773 27.4531 7.38214 27.4531 8.25C27.4531 9.11786 27.6436 9.89226 28.0245 10.5732C28.419 11.2541 28.9564 11.7882 29.6365 12.1754C30.3167 12.5493 31.0786 12.7362 31.922 12.7362Z" fill="#0E0F10"/>
<path d="M51.3229 15.2597L48.5681 11.3543H48.4048H45.5276V15.2597H42.2219V1.24033H48.4048C49.67 1.24033 50.7651 1.44728 51.6902 1.86119C52.6289 2.27509 53.3499 2.86257 53.8532 3.62362C54.3566 4.38467 54.6082 5.28591 54.6082 6.32735C54.6082 7.36878 54.3498 8.27003 53.8328 9.03108C53.3295 9.77878 52.6084 10.3529 51.6698 10.7535L54.8735 15.2597H51.3229ZM51.2617 6.32735C51.2617 5.5396 51.0032 4.93877 50.4862 4.52486C49.9693 4.09761 49.2143 3.88398 48.2212 3.88398H45.5276V8.77072H48.2212C49.2143 8.77072 49.9693 8.55709 50.4862 8.12984C51.0032 7.70258 51.2617 7.10175 51.2617 6.32735Z" fill="#0E0F10"/>
<path d="M60.5127 11.7148V15.2597H57.2273V1.24033H60.5127V7.78936V11.7148Z" fill="#0E0F10"/>
<path fill-rule="evenodd" clip-rule="evenodd" d="M66.6794 1L60.5127 7.54L66.8385 15H70.5982L64.4912 7.24L70.26 1H66.6794ZM85.1152 6.10802C84.3677 5.38802 83.3812 5.02802 82.1558 5.02802C81.5186 5.02802 80.9303 5.13002 80.3912 5.33402C79.852 5.52602 79.3924 5.80802 79.0125 6.18002V1.50002H76.145V14.856H79.0125V10.068C79.0125 9.20402 79.227 8.55602 79.6559 8.12402C80.0848 7.68002 80.6607 7.45802 81.3838 7.45802C82.0332 7.45802 82.5295 7.65002 82.8727 8.03402C83.2158 8.40602 83.3873 8.97602 83.3873 9.74402V14.856H86.2549V9.31202C86.2549 7.89602 85.875 6.82802 85.1152 6.10802ZM98.5937 10.806C98.6305 10.338 98.6489 10.086 98.6489 10.05C98.6489 9.04202 98.4222 8.16002 97.9688 7.40402C97.5276 6.63602 96.9149 6.04802 96.1306 5.64002C95.3463 5.23202 94.4701 5.02802 93.502 5.02802C92.5094 5.02802 91.6088 5.24402 90.8 5.67602C90.0034 6.09602 89.3723 6.69002 88.9067 7.45802C88.4533 8.21402 88.2266 9.06602 88.2266 10.014C88.2266 10.974 88.4594 11.832 88.9251 12.588C89.3907 13.344 90.0525 13.938 90.9103 14.37C91.7681 14.79 92.7545 15 93.8697 15C95.6588 15 97.019 14.478 97.9504 13.434L96.4247 11.814C96.0816 12.138 95.7078 12.378 95.3034 12.534C94.9113 12.678 94.4579 12.75 93.9432 12.75C93.1957 12.75 92.5707 12.576 92.0683 12.228C91.5659 11.88 91.2473 11.406 91.1125 10.806H98.5937ZM91.8845 7.69202C92.3256 7.33202 92.871 7.15202 93.5204 7.15202C94.1577 7.15202 94.6968 7.33802 95.138 7.71002C95.5792 8.07002 95.8488 8.55602 95.9468 9.16802H91.0757C91.1737 8.54402 91.4433 8.05202 91.8845 7.69202ZM103.297 6.45002C103.64 5.98202 104.099 5.62802 104.675 5.38802C105.264 5.14802 105.938 5.02802 106.697 5.02802V7.62002C106.379 7.59602 106.164 7.58402 106.054 7.58402C105.233 7.58402 104.59 7.81202 104.124 8.26802C103.658 8.71202 103.425 9.38402 103.425 10.284V14.856H100.558V5.17202H103.297V6.45002ZM117.945 10.806C117.981 10.338 118 10.086 118 10.05C118 9.04202 117.773 8.16002 117.32 7.40402C116.878 6.63602 116.266 6.04802 115.481 5.64002C114.697 5.23202 113.821 5.02802 112.853 5.02802C111.86 5.02802 110.96 5.24402 110.151 5.67602C109.354 6.09602 108.723 6.69002 108.258 7.45802C107.804 8.21402 107.577 9.06602 107.577 10.014C107.577 10.974 107.81 11.832 108.276 12.588C108.742 13.344 109.403 13.938 110.261 14.37C111.119 14.79 112.105 15 113.221 15C115.01 15 116.37 14.478 117.301 13.434L115.776 11.814C115.432 12.138 115.059 12.378 114.654 12.534C114.262 12.678 113.809 12.75 113.294 12.75C112.547 12.75 111.922 12.576 111.419 12.228C110.917 11.88 110.598 11.406 110.463 10.806H117.945ZM111.235 7.69202C111.676 7.33202 112.222 7.15202 112.871 7.15202C113.509 7.15202 114.048 7.33802 114.489 7.71002C114.93 8.07002 115.2 8.55602 115.298 9.16802H110.427C110.525 8.54402 110.794 8.05202 111.235 7.69202Z" fill="#77A8FF"/>
</svg>
