<svg width="113" height="34" viewBox="0 0 113 34" fill="none" xmlns="http://www.w3.org/2000/svg">
<rect width="59.7544" height="34" fill="#1890FF"/>
<path d="M9.69474 22.2012L12.7321 9.25954H14.4289L14.8164 11.4147L11.58 24.6417H9.75758L9.69474 22.2012ZM8.13415 9.25954L10.6479 22.2012L10.4384 24.6417H8.40647L5.02344 9.25954H8.13415ZM17.4872 22.1484L19.9695 9.25954H23.0802L19.7077 24.6417H17.6758L17.4872 22.1484ZM15.382 9.25954L18.4403 22.254L18.3565 24.6417H16.5341L13.2768 11.4042L13.6957 9.25954H15.382Z" fill="white"/>
<path d="M23.782 19.0424V18.8205C23.782 17.9824 23.9007 17.2112 24.1381 16.5069C24.3755 15.7955 24.7211 15.1793 25.175 14.6581C25.6288 14.1369 26.1874 13.7319 26.8508 13.4431C27.5141 13.1473 28.2752 12.9994 29.1341 12.9994C29.9929 12.9994 30.7575 13.1473 31.4278 13.4431C32.0981 13.7319 32.6602 14.1369 33.1141 14.6581C33.5749 15.1793 33.9241 15.7955 34.1615 16.5069C34.3989 17.2112 34.5176 17.9824 34.5176 18.8205V19.0424C34.5176 19.8735 34.3989 20.6447 34.1615 21.356C33.9241 22.0604 33.5749 22.6766 33.1141 23.2049C32.6602 23.726 32.1016 24.131 31.4383 24.4198C30.775 24.7086 30.0139 24.8529 29.155 24.8529C28.2962 24.8529 27.5316 24.7086 26.8613 24.4198C26.1979 24.131 25.6358 23.726 25.175 23.2049C24.7211 22.6766 24.3755 22.0604 24.1381 21.356C23.9007 20.6447 23.782 19.8735 23.782 19.0424ZM26.7984 18.8205V19.0424C26.7984 19.5213 26.8403 19.9686 26.9241 20.3841C27.0079 20.7996 27.1406 21.1659 27.3221 21.4828C27.5106 21.7927 27.755 22.0357 28.0553 22.2118C28.3555 22.3879 28.7221 22.4759 29.155 22.4759C29.574 22.4759 29.9336 22.3879 30.2338 22.2118C30.5341 22.0357 30.775 21.7927 30.9565 21.4828C31.138 21.1659 31.2707 20.7996 31.3545 20.3841C31.4453 19.9686 31.4907 19.5213 31.4907 19.0424V18.8205C31.4907 18.3557 31.4453 17.919 31.3545 17.5105C31.2707 17.095 31.1346 16.7287 30.946 16.4118C30.7645 16.0878 30.5236 15.8343 30.2233 15.6511C29.9231 15.468 29.56 15.3765 29.1341 15.3765C28.7081 15.3765 28.345 15.468 28.0448 15.6511C27.7515 15.8343 27.5106 16.0878 27.3221 16.4118C27.1406 16.7287 27.0079 17.095 26.9241 17.5105C26.8403 17.919 26.7984 18.3557 26.7984 18.8205Z" fill="white"/>
<path d="M39.3879 15.704V24.6417H36.3714V13.2107H39.2098L39.3879 15.704ZM42.8023 13.1368L42.75 15.9575C42.6033 15.9364 42.4253 15.9188 42.2158 15.9047C42.0133 15.8836 41.8283 15.873 41.6607 15.873C41.2348 15.873 40.8647 15.9293 40.5505 16.042C40.2432 16.1477 39.9849 16.3062 39.7754 16.5174C39.5729 16.7287 39.4193 16.9858 39.3146 17.2887C39.2168 17.5915 39.1609 17.9366 39.147 18.324L38.5395 18.1338C38.5395 17.3943 38.6128 16.7147 38.7595 16.0949C38.9061 15.468 39.1191 14.9222 39.3984 14.4573C39.6846 13.9925 40.0338 13.6333 40.4457 13.3798C40.8577 13.1262 41.329 12.9994 41.8597 12.9994C42.0273 12.9994 42.1983 13.0135 42.3729 13.0417C42.5475 13.0628 42.6906 13.0945 42.8023 13.1368Z" fill="white"/>
<path d="M47.2432 8.40381V24.6417H44.2268V8.40381H47.2432ZM54.3863 13.2107L49.4636 18.8734L46.8243 21.5673L45.7245 19.3699L47.8193 16.6865L50.7624 13.2107H54.3863ZM51.2547 24.6417L47.9031 19.3593L49.9873 17.5211L54.732 24.6417H51.2547Z" fill="white"/>
<path d="M74.5216 15.7487V18.2208H66.5615V15.7487H74.5216ZM67.4937 9.48389V24.866H64.3516V9.48389H67.4937ZM76.763 9.48389V24.866H73.6313V9.48389H76.763Z" fill="black"/>
<path d="M84.524 25.0773C83.6443 25.0773 82.8552 24.9364 82.157 24.6547C81.4587 24.3659 80.8652 23.968 80.3764 23.4609C79.8946 22.9538 79.5246 22.3657 79.2662 21.6966C79.0079 21.0205 78.8787 20.3021 78.8787 19.5414V19.1188C78.8787 18.2525 79.0009 17.4602 79.2453 16.7418C79.4897 16.0234 79.8388 15.4001 80.2926 14.8719C80.7535 14.3436 81.3121 13.9386 81.9684 13.6569C82.6248 13.3682 83.365 13.2238 84.1889 13.2238C84.9919 13.2238 85.7041 13.3576 86.3255 13.6252C86.947 13.8929 87.4672 14.2732 87.8861 14.7662C88.3121 15.2592 88.6333 15.8508 88.8497 16.5411C89.0662 17.2242 89.1744 17.9849 89.1744 18.823V20.0908H80.167V18.0624H86.2103V17.8299C86.2103 17.4074 86.1335 17.0306 85.9799 16.6995C85.8333 16.3615 85.6098 16.0938 85.3096 15.8966C85.0093 15.6994 84.6253 15.6008 84.1575 15.6008C83.7595 15.6008 83.4173 15.6888 83.131 15.8649C82.8448 16.041 82.6108 16.2875 82.4293 16.6045C82.2547 16.9214 82.1221 17.2947 82.0313 17.7243C81.9475 18.1469 81.9056 18.6117 81.9056 19.1188V19.5414C81.9056 19.9992 81.9684 20.4218 82.0941 20.8092C82.2268 21.1965 82.4118 21.5311 82.6492 21.8128C82.8936 22.0945 83.1869 22.3129 83.529 22.4678C83.8782 22.6228 84.2727 22.7002 84.7126 22.7002C85.2572 22.7002 85.7634 22.5946 86.2313 22.3833C86.7061 22.165 87.1146 21.8375 87.4567 21.4008L88.923 23.0066C88.6856 23.3517 88.3609 23.6828 87.949 23.9997C87.544 24.3166 87.0552 24.5772 86.4826 24.7815C85.9101 24.9787 85.2572 25.0773 84.524 25.0773Z" fill="black"/>
<path d="M93.9086 15.9283V24.866H90.8921V13.4351H93.7305L93.9086 15.9283ZM97.323 13.3611L97.2706 16.1819C97.124 16.1607 96.9459 16.1431 96.7365 16.129C96.534 16.1079 96.3489 16.0973 96.1814 16.0973C95.7554 16.0973 95.3854 16.1537 95.0711 16.2664C94.7639 16.372 94.5056 16.5305 94.2961 16.7418C94.0936 16.9531 93.94 17.2102 93.8352 17.513C93.7375 17.8159 93.6816 18.161 93.6677 18.5483L93.0602 18.3582C93.0602 17.6187 93.1335 16.939 93.2801 16.3192C93.4268 15.6924 93.6397 15.1465 93.919 14.6817C94.2053 14.2168 94.5544 13.8576 94.9664 13.6041C95.3784 13.3505 95.8497 13.2238 96.3804 13.2238C96.5479 13.2238 96.719 13.2379 96.8936 13.266C97.0681 13.2872 97.2113 13.3188 97.323 13.3611Z" fill="black"/>
<path d="M103.754 25.0773C102.874 25.0773 102.085 24.9364 101.387 24.6547C100.689 24.3659 100.095 23.968 99.6063 23.4609C99.1245 22.9538 98.7544 22.3657 98.4961 21.6966C98.2377 21.0205 98.1085 20.3021 98.1085 19.5414V19.1188C98.1085 18.2525 98.2307 17.4602 98.4751 16.7418C98.7195 16.0234 99.0686 15.4001 99.5225 14.8719C99.9833 14.3436 100.542 13.9386 101.198 13.6569C101.855 13.3682 102.595 13.2238 103.419 13.2238C104.222 13.2238 104.934 13.3576 105.555 13.6252C106.177 13.8929 106.697 14.2732 107.116 14.7662C107.542 15.2592 107.863 15.8508 108.08 16.5411C108.296 17.2242 108.404 17.9849 108.404 18.823V20.0908H99.3968V18.0624H105.44V17.8299C105.44 17.4074 105.363 17.0306 105.21 16.6995C105.063 16.3615 104.84 16.0938 104.539 15.8966C104.239 15.6994 103.855 15.6008 103.387 15.6008C102.989 15.6008 102.647 15.6888 102.361 15.8649C102.075 16.041 101.841 16.2875 101.659 16.6045C101.485 16.9214 101.352 17.2947 101.261 17.7243C101.177 18.1469 101.135 18.6117 101.135 19.1188V19.5414C101.135 19.9992 101.198 20.4218 101.324 20.8092C101.457 21.1965 101.642 21.5311 101.879 21.8128C102.123 22.0945 102.417 22.3129 102.759 22.4678C103.108 22.6228 103.503 22.7002 103.942 22.7002C104.487 22.7002 104.993 22.5946 105.461 22.3833C105.936 22.165 106.344 21.8375 106.687 21.4008L108.153 23.0066C107.915 23.3517 107.591 23.6828 107.179 23.9997C106.774 24.3166 106.285 24.5772 105.712 24.7815C105.14 24.9787 104.487 25.0773 103.754 25.0773Z" fill="black"/>
</svg>
